<svg width="19" height="16" viewBox="0 0 19 16" fill="none" xmlns="http://www.w3.org/2000/svg">
<path opacity="0.6" d="M0.13982 1.33333C0.13982 0.596954 0.736773 0 1.47315 0H17.1917C17.9281 0 18.525 0.596954 18.525 1.33333V1.33333C18.525 2.06971 17.9281 2.66667 17.1917 2.66667H1.47315C0.736775 2.66667 0.13982 2.06971 0.13982 1.33333V1.33333ZM0.0250244 8C0.0250244 7.26362 0.621978 6.66667 1.35836 6.66667H17.1917C17.9281 6.66667 18.525 7.26362 18.525 8V8C18.525 8.73638 17.9281 9.33333 17.1917 9.33333H1.35836C0.621978 9.33333 0.0250244 8.73638 0.0250244 8V8ZM0.0250244 14.6667C0.0250244 13.9303 0.621978 13.3333 1.35836 13.3333H17.1917C17.9281 13.3333 18.525 13.9303 18.525 14.6667V14.6667C18.525 15.403 17.9281 16 17.1917 16H1.35836C0.621978 16 0.0250244 15.403 0.0250244 14.6667V14.6667Z" fill="#737373"/>
</svg>
