<svg width="69" height="14" viewBox="0 0 69 14" fill="none" xmlns="http://www.w3.org/2000/svg">
<path d="M6.48025 13.126C5.30425 13.126 4.22425 12.85 3.24025 12.298C2.25625 11.746 1.47625 10.984 0.90025 10.012C0.32425 9.028 0.03625 7.918 0.03625 6.682C0.03625 5.458 0.32425 4.36 0.90025 3.388C1.47625 2.404 2.25625 1.636 3.24025 1.084C4.22425 0.532 5.30425 0.256 6.48025 0.256C7.66825 0.256 8.74825 0.532 9.72025 1.084C10.7043 1.636 11.4783 2.404 12.0423 3.388C12.6183 4.36 12.9063 5.458 12.9063 6.682C12.9063 7.918 12.6183 9.028 12.0423 10.012C11.4783 10.984 10.7043 11.746 9.72025 12.298C8.73625 12.85 7.65625 13.126 6.48025 13.126ZM6.48025 10.876C7.23625 10.876 7.90225 10.708 8.47825 10.372C9.05425 10.024 9.50425 9.532 9.82825 8.896C10.1523 8.26 10.3143 7.522 10.3143 6.682C10.3143 5.842 10.1523 5.11 9.82825 4.486C9.50425 3.85 9.05425 3.364 8.47825 3.028C7.90225 2.692 7.23625 2.524 6.48025 2.524C5.72425 2.524 5.05225 2.692 4.46425 3.028C3.88825 3.364 3.43825 3.85 3.11425 4.486C2.79025 5.11 2.62825 5.842 2.62825 6.682C2.62825 7.522 2.79025 8.26 3.11425 8.896C3.43825 9.532 3.88825 10.024 4.46425 10.372C5.05225 10.708 5.72425 10.876 6.48025 10.876ZM21.2611 13L18.4891 8.104H17.3011V13H14.7811V0.436H19.4971C20.4691 0.436 21.2971 0.61 21.9811 0.957999C22.6651 1.294 23.1751 1.756 23.5111 2.344C23.8591 2.92 24.0331 3.568 24.0331 4.288C24.0331 5.116 23.7931 5.866 23.3131 6.538C22.8331 7.198 22.1191 7.654 21.1711 7.906L24.1771 13H21.2611ZM17.3011 6.214H19.4071C20.0911 6.214 20.6011 6.052 20.9371 5.728C21.2731 5.392 21.4411 4.93 21.4411 4.342C21.4411 3.766 21.2731 3.322 20.9371 3.01C20.6011 2.686 20.0911 2.524 19.4071 2.524H17.3011V6.214Z" fill="white"/>
<path d="M33.4403 6.556C34.1483 6.688 34.7303 7.042 35.1863 7.618C35.6423 8.194 35.8703 8.854 35.8703 9.598C35.8703 10.27 35.7023 10.864 35.3663 11.38C35.0423 11.884 34.5683 12.28 33.9443 12.568C33.3203 12.856 32.5823 13 31.7303 13H26.3123V0.436H31.4963C32.3483 0.436 33.0803 0.574 33.6923 0.85C34.3163 1.126 34.7843 1.51 35.0963 2.002C35.4203 2.494 35.5823 3.052 35.5823 3.676C35.5823 4.408 35.3843 5.02 34.9883 5.512C34.6043 6.004 34.0883 6.352 33.4403 6.556ZM28.8323 5.62H31.1363C31.7363 5.62 32.1983 5.488 32.5223 5.224C32.8463 4.948 33.0083 4.558 33.0083 4.054C33.0083 3.55 32.8463 3.16 32.5223 2.884C32.1983 2.608 31.7363 2.47 31.1363 2.47H28.8323V5.62ZM31.3703 10.948C31.9823 10.948 32.4563 10.804 32.7923 10.516C33.1403 10.228 33.3143 9.82 33.3143 9.292C33.3143 8.752 33.1343 8.332 32.7743 8.032C32.4143 7.72 31.9283 7.564 31.3163 7.564H28.8323V10.948H31.3703ZM40.3987 0.436V13H37.8787V0.436H40.3987ZM47.2805 0.436C48.6005 0.436 49.7585 0.694 50.7545 1.21C51.7625 1.726 52.5365 2.464 53.0765 3.424C53.6285 4.372 53.9045 5.476 53.9045 6.736C53.9045 7.996 53.6285 9.1 53.0765 10.048C52.5365 10.984 51.7625 11.71 50.7545 12.226C49.7585 12.742 48.6005 13 47.2805 13H42.8885V0.436H47.2805ZM47.1905 10.858C48.5105 10.858 49.5305 10.498 50.2505 9.778C50.9705 9.058 51.3305 8.044 51.3305 6.736C51.3305 5.428 50.9705 4.408 50.2505 3.676C49.5305 2.932 48.5105 2.56 47.1905 2.56H45.4085V10.858H47.1905ZM61.6228 13.126C60.4468 13.126 59.3668 12.85 58.3828 12.298C57.3988 11.746 56.6188 10.984 56.0428 10.012C55.4668 9.028 55.1788 7.918 55.1788 6.682C55.1788 5.458 55.4668 4.36 56.0428 3.388C56.6188 2.404 57.3988 1.636 58.3828 1.084C59.3668 0.532 60.4468 0.256 61.6228 0.256C62.8108 0.256 63.8908 0.532 64.8628 1.084C65.8468 1.636 66.6208 2.404 67.1848 3.388C67.7608 4.36 68.0488 5.458 68.0488 6.682C68.0488 7.918 67.7608 9.028 67.1848 10.012C66.6208 10.984 65.8468 11.746 64.8628 12.298C63.8788 12.85 62.7988 13.126 61.6228 13.126ZM61.6228 10.876C62.3788 10.876 63.0448 10.708 63.6208 10.372C64.1968 10.024 64.6468 9.532 64.9708 8.896C65.2948 8.26 65.4568 7.522 65.4568 6.682C65.4568 5.842 65.2948 5.11 64.9708 4.486C64.6468 3.85 64.1968 3.364 63.6208 3.028C63.0448 2.692 62.3788 2.524 61.6228 2.524C60.8668 2.524 60.1948 2.692 59.6068 3.028C59.0308 3.364 58.5808 3.85 58.2568 4.486C57.9328 5.11 57.7708 5.842 57.7708 6.682C57.7708 7.522 57.9328 8.26 58.2568 8.896C58.5808 9.532 59.0308 10.024 59.6068 10.372C60.1948 10.708 60.8668 10.876 61.6228 10.876Z" fill="#DE9A04"/>
</svg>
